<?xml version="1.0" ?><svg fill="none" height="24" viewBox="0 0 24 24" width="24" xmlns="http://www.w3.org/2000/svg"><path clip-rule="evenodd" d="M5 16C5 14.8954 5.89543 14 7 14H10C11.1046 14 12 14.8954 12 16V19C12 20.1046 11.1046 21 10 21H7C5.89543 21 5 20.1046 5 19V16ZM10 16H7V19H10V16Z" fill="black" fill-rule="evenodd"/><path clip-rule="evenodd" d="M3 5C3 3.89543 3.89543 3 5 3H10C11.1046 3 12 3.89543 12 5V10C12 11.1046 11.1046 12 10 12H5C3.89543 12 3 11.1046 3 10V5ZM10 5H5V10H10V5Z" fill="black" fill-rule="evenodd"/><path clip-rule="evenodd" d="M14 16C14 14.8954 14.8954 14 16 14H19C20.1046 14 21 14.8954 21 16V19C21 20.1046 20.1046 21 19 21H16C14.8954 21 14 20.1046 14 19V16ZM19 16H16V19H19V16Z" fill="black" fill-rule="evenodd"/><path clip-rule="evenodd" d="M14 7C14 5.89543 14.8954 5 16 5H19C20.1046 5 21 5.89543 21 7V10C21 11.1046 20.1046 12 19 12H16C14.8954 12 14 11.1046 14 10V7ZM19 7H16V10H19V7Z" fill="black" fill-rule="evenodd"/></svg>